HIERARCHY
ROOT Hips
{
	OFFSET -32.860001 56.121803 44.745396
	CHANNELS 6 Xposition Yposition Zposition Zrotation Xrotation Yrotation
	JOINT Chest
	{
		OFFSET -0.637402 0.831600 5.390099
		CHANNELS 6 Xposition Yposition Zposition Zrotation Xrotation Yrotation
		JOINT Chest2
		{
			OFFSET 0.000000 0.000000 4.429901
			CHANNELS 6 Xposition Yposition Zposition Zrotation Xrotation Yrotation
			JOINT Neck
			{
				OFFSET 0.000000 0.000000 10.301395
				CHANNELS 6 Xposition Yposition Zposition Zrotation Xrotation Yrotation
				JOINT Head
				{
					OFFSET 0.000000 0.000000 2.173897
					CHANNELS 6 Xposition Yposition Zposition Zrotation Xrotation Yrotation
					End Site
					{
						OFFSET 0.000000 0.000000 8.298004
					}
				}
			}
			JOINT LeftCollar
			{
				OFFSET 2.142401 -0.572701 5.717800
				CHANNELS 6 Xposition Yposition Zposition Zrotation Xrotation Yrotation
				JOINT LeftShoulder
				{
					OFFSET 5.674000 0.000000 0.000000
					CHANNELS 6 Xposition Yposition Zposition Zrotation Xrotation Yrotation
					JOINT LeftElbow
					{
						OFFSET 0.000000 0.000000 -12.238701
						CHANNELS 6 Xposition Yposition Zposition Zrotation Xrotation Yrotation
						JOINT LeftWrist
						{
							OFFSET 0.000000 0.000000 -10.253700
							CHANNELS 6 Xposition Yposition Zposition Zrotation Xrotation Yrotation
							End Site
							{
								OFFSET 0.000000 0.000000 -2.173901
							}
						}
					}
				}
			}
			JOINT RightCollar
			{
				OFFSET -2.882599 -1.580101 6.695801
				CHANNELS 6 Xposition Yposition Zposition Zrotation Xrotation Yrotation
				JOINT RightShoulder
				{
					OFFSET -4.235600 0.000000 0.000000
					CHANNELS 6 Xposition Yposition Zposition Zrotation Xrotation Yrotation
					JOINT RightElbow
					{
						OFFSET 0.000000 0.000000 -10.709900
						CHANNELS 6 Xposition Yposition Zposition Zrotation Xrotation Yrotation
						JOINT RightWrist
						{
							OFFSET 0.000000 0.000000 -11.716801
							CHANNELS 6 Xposition Yposition Zposition Zrotation Xrotation Yrotation
							End Site
							{
								OFFSET 0.000000 0.000000 -2.173901
							}
						}
					}
				}
			}
		}
	}
	JOINT LeftHip
	{
		OFFSET 2.279499 0.210400 -2.475502
		CHANNELS 6 Xposition Yposition Zposition Zrotation Xrotation Yrotation
		JOINT LeftKnee
		{
			OFFSET 0.000000 -0.000004 -20.742800
			CHANNELS 6 Xposition Yposition Zposition Zrotation Xrotation Yrotation
			JOINT LeftAnkle
			{
				OFFSET 0.000000 0.000000 -16.666000
				CHANNELS 6 Xposition Yposition Zposition Zrotation Xrotation Yrotation
				End Site
				{
					OFFSET 0.000000 -8.310898 0.000000
				}
			}
		}
	}
	JOINT RightHip
	{
		OFFSET -1.961899 0.232300 -2.727402
		CHANNELS 6 Xposition Yposition Zposition Zrotation Xrotation Yrotation
		JOINT RightKnee
		{
			OFFSET 0.000000 -0.000004 -20.526800
			CHANNELS 6 Xposition Yposition Zposition Zrotation Xrotation Yrotation
			JOINT RightAnkle
			{
				OFFSET 0.000000 0.000000 -16.867300
				CHANNELS 6 Xposition Yposition Zposition Zrotation Xrotation Yrotation
				End Site
				{
					OFFSET 0.000000 -7.186401 0.000000
				}
			}
		}
	}
}
MOTION
Frames: 7
Frame Time: 0.041667
18.905209 -21.199692 45.607998 742.063717 22.733964 -6.839097 -0.637404 0.831597 5.390098 8.709625 17.857494 -0.585094 -0.000005 0.000005 4.429906 -4.157832 -2.463638 -0.185548 0.000003 -0.000005 10.301395 339.012095 14.838830 7.182905 -0.000001 0.000000 2.173898 -360.758571 3.067976 -4.995560 2.142399 -0.572707 5.717799 -6.793824 1.552014 0.872618 5.674001 -0.000006 -0.000010 134.540670 160.630340 106.158994 0.000004 -0.000002 -12.238696 -299.248892 -359.144051 -358.219516 -0.000005 0.000001 -10.253706 255.270916 30.794389 -70.167947 -2.882597 -1.580099 6.695789 28.633070 17.293464 -7.786598 -4.235600 0.000003 -0.000012 37.401522 -6.857947 56.272142 0.000003 -0.000004 -10.709905 -0.880642 -3.907246 -1.621914 -0.000008 -0.000002 -11.716801 46.487449 23.513476 63.162775 2.279499 0.210400 -2.475499 33.372089 -36.198435 29.216032 0.000000 -0.000004 -20.742794 29.157258 6.100464 -29.654175 0.000001 0.000004 -16.666002 233.095724 29.900755 59.704432 -1.961896 0.232298 -2.727402 -428.351216 -35.707163 -32.162032 0.000002 -0.000005 -20.526796 392.523950 34.764024 7.629786 -0.000003 -0.000000 -16.867302 51.857453 29.838532 -12.205226
18.314915 -21.421898 45.720795 746.497165 22.258304 -8.139065 -0.637404 0.831599 5.390090 8.879738 17.706524 -1.397982 -0.000002 0.000001 4.429897 -3.818691 -2.432416 -0.205664 0.000002 0.000002 10.301411 336.425202 14.947428 7.462063 -0.000004 -0.000001 2.173910 -360.639152 3.388351 -5.698975 2.142399 -0.572696 5.717814 -5.891777 0.213899 -0.106807 5.674001 0.000001 0.000010 135.009508 159.775227 104.931479 -0.000001 -0.000005 -12.238707 -300.953516 -359.002884 -358.321122 0.000013 0.000003 -10.253701 255.662150 32.962797 -69.170685 -2.882598 -1.580101 6.695804 28.821646 17.506945 -7.365640 -4.235603 0.000009 -0.000008 39.433684 -8.697464 56.202826 0.000002 0.000007 -10.709899 -1.381912 -4.051389 -1.717286 0.000008 0.000002 -11.716801 46.785741 23.523004 63.149204 2.279506 0.210404 -2.475498 34.285692 -35.395280 29.550141 -0.000002 -0.000005 -20.742802 20.683022 12.966632 -27.559055 -0.000008 0.000002 -16.666004 246.907732 32.896203 53.979115 -1.961900 0.232290 -2.727405 -427.517222 -35.984759 -30.499028 0.000004 -0.000001 -20.526800 392.549768 35.188202 7.138142 -0.000000 0.000004 -16.867298 45.551146 29.963883 -9.169399
17.752407 -21.678795 45.810699 750.761061 21.765573 -9.302557 -0.637405 0.831598 5.390095 9.045027 17.487231 -2.003112 0.000002 -0.000003 4.429904 -3.491111 -2.516855 -0.227158 -0.000001 0.000002 10.301411 334.056984 15.191534 7.501563 0.000002 -0.000006 2.173898 -360.695460 3.566966 -5.989927 2.142396 -0.572696 5.717806 -4.388559 -0.041982 -1.414852 5.673997 -0.000006 -0.000010 135.230902 159.870795 102.862970 0.000003 -0.000005 -12.238702 -302.295266 -358.813360 -358.377075 -0.000003 -0.000002 -10.253700 257.265113 32.667938 -69.364854 -2.882604 -1.580091 6.695807 29.211189 17.740513 -7.879344 -4.235603 -0.000002 0.000002 41.215083 -10.483507 57.448004 0.000000 0.000000 -10.709898 -3.545636 -4.317752 -1.977023 0.000000 0.000004 -11.716793 48.358846 23.431604 62.964188 2.279504 0.210401 -2.475497 35.203563 -34.576146 29.638499 -0.000002 -0.000005 -20.742794 15.326987 17.147518 -25.021471 0.000001 -0.000000 -16.666000 257.247218 34.768289 49.434959 -1.961896 0.232300 -2.727397 -426.365434 -36.334800 -28.602353 0.000000 -0.000008 -20.526793 391.481035 35.379960 6.850354 0.000002 -0.000007 -16.867298 41.380909 29.603051 -7.635996
17.213715 -21.956001 45.865997 754.890593 21.184957 -10.188895 -0.637402 0.831601 5.390104 9.647121 17.002955 -2.874960 0.000000 0.000003 4.429901 -3.496315 -2.636321 -0.245885 0.000002 0.000009 10.301393 331.839222 15.670068 7.567162 -0.000003 0.000001 2.173902 -360.899846 3.687641 -6.036365 2.142401 -0.572690 5.717796 -2.933698 0.277121 -2.538634 5.673998 0.000002 0.000008 135.539927 160.103582 100.419770 0.000004 -0.000013 -12.238696 -303.045521 -358.689570 -358.687821 0.000000 0.000007 -10.253703 258.387286 32.106858 -69.272182 -2.882601 -1.580088 6.695793 29.497026 18.229169 -8.059965 -4.235605 -0.000003 -0.000008 42.803727 -12.803227 58.997227 -0.000002 0.000005 -10.709900 -5.075607 -4.657139 -2.323206 0.000001 -0.000004 -11.716805 49.875356 23.201924 63.044313 2.279503 0.210402 -2.475499 35.945383 -33.760915 29.349705 -0.000001 -0.000007 -20.742798 11.598910 19.984609 -22.278359 -0.000003 0.000005 -16.665998 266.339047 36.321245 45.238621 -1.961897 0.232304 -2.727396 -425.127640 -36.511657 -26.749084 0.000001 -0.000003 -20.526806 389.808759 35.573889 6.730296 -0.000004 0.000006 -16.867304 37.671044 29.253027 -6.023364
16.714809 -22.248390 45.881596 759.205251 19.959635 -11.173800 -0.637407 0.831596 5.390104 10.070208 16.925801 -3.677601 0.000000 -0.000003 4.429897 -3.593390 -2.591240 -0.246850 -0.000006 0.000002 10.301397 329.732928 15.979424 7.390245 0.000002 0.000003 2.173889 -361.129669 3.837254 -6.068635 2.142395 -0.572703 5.717806 -2.056910 -0.756853 -4.117714 5.674005 0.000008 0.000008 135.825948 159.596236 98.942598 0.000006 0.000001 -12.238692 -302.286687 -358.559250 -358.784810 0.000009 0.000002 -10.253699 258.756772 31.291125 -69.484956 -2.882607 -1.580097 6.695805 29.553795 16.839790 -8.211608 -4.235594 0.000002 -0.000007 43.451198 -14.548890 59.709896 -0.000001 0.000010 -10.709905 -6.050663 -5.122528 -2.468703 0.000001 0.000002 -11.716795 51.019519 22.610786 63.321072 2.279500 0.210401 -2.475494 36.398003 -32.194588 28.762719 -0.000001 -0.000005 -20.742798 8.227113 22.208135 -19.546060 -0.000003 0.000002 -16.666000 275.779761 37.299824 40.665048 -1.961893 0.232296 -2.727397 -423.501699 -36.497929 -24.038711 0.000003 -0.000002 -20.526800 388.203145 35.740812 6.612807 -0.000003 0.000003 -16.867302 34.040860 28.584273 -4.915199
16.258411 -22.555496 45.862095 763.718203 19.071488 -11.920902 -0.637404 0.831596 5.390107 10.535703 16.282722 -4.615908 -0.000003 -0.000003 4.429894 -3.745480 -2.674825 -0.221988 -0.000001 -0.000002 10.301399 327.390337 16.331411 7.460648 -0.000001 0.000003 2.173900 -361.092977 4.135288 -6.210464 2.142399 -0.572700 5.717807 -1.213848 -0.715221 -4.768743 5.674005 0.000007 0.000004 136.587459 158.987884 95.918232 0.000011 -0.000005 -12.238700 -302.283054 -358.527230 -359.011928 -0.000001 0.000006 -10.253703 260.595950 30.526561 -69.765219 -2.882598 -1.580093 6.695800 29.011860 16.358856 -8.763467 -4.235596 0.000002 -0.000001 44.705292 -16.593465 61.746269 -0.000003 0.000003 -10.709911 -7.439536 -5.685768 -2.933736 0.000001 0.000008 -11.716795 52.546978 22.433464 63.010298 2.279500 0.210400 -2.475496 35.898706 -31.154593 28.003579 -0.000003 -0.000006 -20.742792 4.253172 24.614837 -16.714327 -0.000003 -0.000000 -16.665997 288.488968 37.406634 34.787315 -1.961897 0.232298 -2.727397 -422.749095 -36.311222 -22.261429 0.000002 -0.000007 -20.526796 387.774291 36.177528 5.999519 0.000002 0.000006 -16.867300 29.535859 27.808951 -3.624084
15.862217 -22.872589 45.822399 767.630809 17.966690 -12.444905 -0.637399 0.831597 5.390093 11.278484 15.842904 -5.365428 -0.000005 -0.000001 4.429904 -3.731955 -2.793955 -0.213199 0.000001 0.000004 10.301390 326.147571 16.572996 6.783693 0.000004 0.000001 2.173900 -362.008413 4.467375 -5.854169 2.142400 -0.572696 5.717800 -0.796138 0.797051 -5.585425 5.673990 0.000003 -0.000006 138.259285 159.894797 91.813131 0.000000 -0.000005 -12.238700 -302.366081 -358.478572 -359.277431 -0.000007 0.000003 -10.253692 262.359423 29.997815 -69.919390 -2.882603 -1.580094 6.695802 29.213887 16.817884 -10.158302 -4.235601 0.000000 -0.000002 45.949483 -18.573631 65.487997 -0.000008 0.000011 -10.709900 -8.637659 -6.212113 -3.271768 0.000000 0.000002 -11.716797 52.775622 22.229494 62.994500 2.279506 0.210401 -2.475505 34.219050 -29.937494 26.508044 -0.000003 -0.000001 -20.742798 0.757823 26.354322 -13.776951 -0.000003 -0.000005 -16.665993 302.587844 36.865181 27.765462 -1.961893 0.232304 -2.727403 -420.338912 -36.312366 -19.606249 0.000001 -0.000010 -20.526802 386.262552 36.753221 5.391896 -0.000001 -0.000000 -16.867304 25.224239 26.961031 -2.405746
